<?xml version="1.0" encoding="utf-8"?>
<!-- Generator: Adobe Illustrator 27.5.0, SVG Export Plug-In . SVG Version: 6.00 Build 0)  -->
<svg version="1.1" id="Layer_1" xmlns="http://www.w3.org/2000/svg" xmlns:xlink="http://www.w3.org/1999/xlink" x="0px" y="0px"
	 viewBox="0 0 160 90" style="enable-background:new 0 0 160 90;" xml:space="preserve">
<style type="text/css">
	.st0{fill:#D9E7F6;}
	.st1{fill:#FFFFFF;}
	.st2{font-family:'Rondal-Semibold';}
	.st3{font-size:36px;}
</style>
<path class="st0" d="M46.8,10.4C25.9,10.4,9,27.3,9,48.2S25.9,86,46.8,86s37.8-16.9,37.8-37.8S67.6,10.4,46.8,10.4z M46.8,84.3
	c-19.9,0-36.1-16.2-36.1-36.1s16.2-36.1,36.1-36.1s36.1,16.2,36.1,36.1S66.7,84.3,46.8,84.3z"/>
<path class="st0" d="M42.5,7.8C21.7,7.8,4.7,24.7,4.7,45.7s16.9,37.8,37.8,37.8s37.8-16.9,37.8-37.8C80.4,24.8,63.4,7.8,42.5,7.8z
	 M42.5,82.7C22,82.7,5.4,66.1,5.4,45.6S22,8.5,42.5,8.5s37.1,16.6,37.1,37.1C79.7,66.1,63.1,82.7,42.5,82.7z"/>
<path class="st0" d="M47.4,4.8C26.5,4.8,9.6,21.7,9.6,42.6s16.9,37.8,37.8,37.8s37.8-16.9,37.8-37.8S68.3,4.8,47.4,4.8z M47.4,79.7
	c-20.5,0-37.1-16.6-37.1-37.1S27,5.5,47.4,5.5s37.1,16.6,37.1,37.1S67.9,79.7,47.4,79.7z"/>
<text transform="matrix(1 0 0 1 36.1963 42.9893)" class="st1 st2 st3">Jazzelle</text>
<text transform="matrix(1 0 0 1 36.1963 74.9893)" class="st1 st2 st3">Blog</text>
</svg>
