<?xml version="1.0" encoding="UTF-8"?>
<svg id="Layer_1" data-name="Layer 1" xmlns="http://www.w3.org/2000/svg" viewBox="0 0 160 90">
  <defs>
    <style>
      .cls-1 {
        fill: #d9e7f6;
      }

      .cls-2 {
        fill: #768fc9;
        font-family: Rondal-Semibold, Rondal;
        font-size: 49.77px;
        font-weight: 600;
        isolation: isolate;
      }
    </style>
  </defs>
  <path class="cls-1" d="m46.76,10.41c-20.87,0-37.83,16.92-37.83,37.83s16.92,37.83,37.83,37.83,37.83-16.92,37.83-37.83c-.03-20.94-16.96-37.83-37.83-37.83Zm0,73.86c-19.94,0-36.07-16.16-36.07-36.07S26.85,12.13,46.76,12.13s36.07,16.16,36.07,36.07-16.16,36.07-36.07,36.07Z"/>
  <path class="cls-1" d="m42.55,7.82C21.67,7.82,4.72,24.74,4.72,45.65s16.92,37.83,37.83,37.83,37.83-16.92,37.83-37.83c-.03-20.9-16.96-37.83-37.83-37.83Zm0,74.92c-20.51,0-37.13-16.62-37.13-37.13S22.04,8.48,42.55,8.48s37.13,16.62,37.13,37.13c-.03,20.51-16.62,37.13-37.13,37.13Z"/>
  <path class="cls-1" d="m47.42,4.8C26.55,4.8,9.6,21.72,9.6,42.63s16.92,37.83,37.83,37.83,37.83-16.92,37.83-37.83S68.33,4.8,47.42,4.8Zm0,74.92c-20.51,0-37.13-16.62-37.13-37.13S26.95,5.46,47.42,5.46s37.13,16.62,37.13,37.13-16.62,37.13-37.13,37.13Z"/>
  <text class="cls-2" transform="translate(33.82 60.21)"><tspan x="0" y="0">Amiva</tspan></text>
</svg>